<svg xmlns="http://www.w3.org/2000/svg" xml:space="preserve" viewBox="0 0 32 32" id="Facebook">
  <g id="OUTLINE_copy" fill="#000000" class="color000000 svgShape">
    <path fill="#f7931e" d="M13.892 24.123h3.357v-8.124h2.239l.297-2.799h-2.536l.003-1.402c0-.73.07-1.121 1.117-1.121h1.4v-2.8h-2.24c-2.69 0-3.637 1.358-3.637 3.642V13.2h-1.677V16h1.677v8.123z" class="color414752 svgShape"></path>
    <path id="Shopping_10_122_" fill="#f7931e" d="M16 1c8.271 0 15 6.729 15 15s-6.729 15-15 15S1 24.271 1 16 7.729 1 16 1m0-1C7.163 0 0 7.163 0 16s7.163 16 16 16 16-7.163 16-16S24.837 0 16 0z" class="color414752 svgShape"></path>
  </g>
</svg>
