<svg width="204" height="55" viewBox="0 0 204 55" fill="none" xmlns="http://www.w3.org/2000/svg">
<path d="M5.1121 42.9825C4.67527 43.2666 4.28566 43.6337 3.94328 44.0599C3.6009 44.4862 3.31755 44.9361 3.10504 45.4215C2.89253 45.8951 2.77446 46.3214 2.77446 46.7003C2.77446 47.1028 2.8453 47.5172 2.98698 47.9435C3.12865 48.3697 3.32936 48.7486 3.6009 49.1038C3.87244 49.459 4.19121 49.7432 4.56901 49.9681C4.94681 50.1931 5.36003 50.3115 5.83228 50.3115H10.5075C10.6374 50.3115 10.7201 50.3825 10.7673 50.5128C10.8145 50.643 10.8381 50.7733 10.8381 50.9035V51.0456V51.1877C10.8381 51.3416 10.8145 51.4955 10.7791 51.6376C10.7437 51.7797 10.602 51.8507 10.3659 51.8507H2.43208C2.38486 51.8507 2.24318 51.9928 2.00706 52.2651C1.77093 52.5374 1.523 52.8453 1.25146 53.2005C0.979917 53.5557 0.72018 53.8991 0.484055 54.2424C0.247931 54.5858 0.0826436 54.8344 0 54.9884H11.9007C12.3257 54.9884 12.7271 54.8581 13.1285 54.5976C13.5299 54.3371 13.8723 54.0175 14.1793 53.6267C14.4862 53.236 14.7224 52.8098 14.9113 52.348C15.1002 51.8862 15.1946 51.46 15.1946 51.0456V50.9035C15.1946 50.5483 15.1356 50.1576 15.0293 49.7313C14.9231 49.3051 14.7578 48.9144 14.5217 48.5473C14.2973 48.1803 14.0022 47.8724 13.648 47.6356C13.2938 47.3988 12.857 47.2686 12.3611 47.2686H7.93379C7.92198 47.2686 7.85114 47.2449 7.73308 47.1857C7.61502 47.1265 7.53238 47.0673 7.46154 47.0081C7.42612 46.9726 7.37889 46.9371 7.31986 46.8779C7.26083 46.8187 7.22541 46.7831 7.22541 46.7713V46.6529C7.22541 46.5108 7.28444 46.3214 7.41431 46.0964C7.54418 45.8596 7.68586 45.7412 7.86295 45.7412H15.5606C16.1155 45.2084 16.635 44.6756 17.0836 44.1546C17.5441 43.6218 17.9455 43.089 18.3115 42.5681H6.42259C5.98576 42.5562 5.54893 42.6983 5.1121 42.9825Z" fill="#F7931E"/>
<path d="M34.8164 42.556L31.2273 48.263L30.8259 42.556H27.2368L23.2699 48.6892V42.556H19.4211V52.8333C19.4211 53.0345 19.4329 53.2595 19.4447 53.5081C19.4565 53.7568 19.4919 53.9936 19.5273 54.1949C19.5628 54.408 19.6218 54.5856 19.6926 54.7277C19.7635 54.8816 19.8461 54.9526 19.9642 54.9526H22.7386C22.8331 54.9526 22.9393 54.8934 23.0692 54.775C23.1991 54.6566 23.3171 54.5145 23.447 54.3488C23.5769 54.183 23.6831 54.0173 23.8012 53.8515C23.9075 53.6857 24.0019 53.5555 24.0845 53.4608L26.8354 49.5062C26.9417 50.4534 27.0361 51.2822 27.1069 51.9689C27.1778 52.6556 27.2486 53.2121 27.3076 53.6502C27.3667 54.0883 27.4375 54.408 27.5084 54.6211C27.5792 54.8342 27.6736 54.9408 27.8035 54.9408H30.5544C30.637 54.9408 30.7315 54.8816 30.8731 54.7632C31.003 54.6448 31.1329 54.5027 31.2745 54.3369C31.4044 54.1712 31.5343 54.0054 31.6523 53.8397C31.7704 53.6739 31.853 53.5437 31.9239 53.4489L38.9722 42.5205H34.8164V42.556Z" fill="#F7931E"/>
<path d="M47.6264 45.718H50.3772C50.5071 45.718 50.696 45.5877 50.9675 45.3391C51.2391 45.0904 51.5224 44.7944 51.8058 44.4511C52.0891 44.1077 52.3607 43.7643 52.6204 43.4091C52.8801 43.0539 53.0572 42.7698 53.1635 42.5566H41.4753C41.2628 42.6987 40.9913 42.9237 40.6961 43.2434C40.3891 43.5631 40.094 43.8946 39.8106 44.2379C39.5273 44.5813 39.2794 44.8891 39.0668 45.1733C38.8543 45.4575 38.7481 45.6232 38.7245 45.6824V45.7061H43.14L40.9204 51.7919H38.1342C37.9216 51.934 37.6501 52.159 37.3549 52.4787C37.048 52.7983 36.7528 53.1299 36.4695 53.4732C36.1861 53.8166 35.9382 54.1244 35.7257 54.4086C35.5132 54.6928 35.4069 54.8585 35.3833 54.9177V54.9414H47.0242C47.1541 54.9414 47.343 54.8112 47.6146 54.5625C47.8861 54.3139 48.1694 54.0179 48.4528 53.6745C48.7361 53.3311 49.0077 52.9878 49.2674 52.6326C49.5272 52.2774 49.7043 51.9932 49.8105 51.7801H45.395L47.6264 45.718Z" fill="#F7931E"/>
<path d="M67.6734 42.5566H54.3795L49.8696 54.9651H54.3323L55.9852 50.4066H60.625L63.9662 47.2453H58.5708L56.3512 49.4002L57.6853 45.7298H64.8753C65.0052 45.7298 65.1941 45.5996 65.4656 45.3509C65.7371 45.1023 66.0205 44.8063 66.3038 44.4629C66.5872 44.1195 66.8587 43.7762 67.1185 43.421C67.39 43.0539 67.5671 42.7698 67.6734 42.5566Z" fill="#F7931E"/>
<path d="M68.9483 43.2425C68.6414 43.5622 68.3462 43.8937 68.0629 44.2371C67.7795 44.5804 67.5316 44.8883 67.3191 45.1725C67.1066 45.4566 67.0003 45.6224 66.9767 45.6816V45.7053H71.3922L68.0274 54.9524H72.5138L75.8786 45.7053H78.6294C78.7593 45.7053 78.9482 45.575 79.2198 45.3264C79.4913 45.0777 79.7746 44.7817 80.058 44.4384C80.3413 44.095 80.6129 43.7516 80.8726 43.3964C81.1324 43.0412 81.3095 42.7571 81.4157 42.5439H69.7275C69.515 42.6979 69.2553 42.9228 68.9483 43.2425Z" fill="#F7931E"/>
<path d="M93.718 51.8037C93.4583 51.8037 93.1749 51.7089 92.8916 51.5195C92.6082 51.33 92.3367 51.0932 92.1006 50.8209C91.8644 50.5368 91.6637 50.2289 91.5103 49.8974C91.3568 49.5659 91.2741 49.2462 91.2741 48.9502C91.2741 48.7134 91.3332 48.3937 91.463 47.9911C91.5575 47.7306 91.6874 47.4583 91.8644 47.186C92.0297 46.9137 92.2304 46.665 92.4312 46.4519C92.6437 46.2388 92.8562 46.0612 93.0805 45.931C93.3048 45.8007 93.5173 45.7297 93.718 45.7297H99.7864C100.33 45.2561 100.837 44.7706 101.298 44.2378C101.758 43.7169 102.207 43.1604 102.667 42.5684H93.0333C92.2068 42.5684 91.4276 42.7696 90.6956 43.184C89.9636 43.5985 89.3143 44.1194 88.7594 44.7588C88.2045 45.3981 87.7559 46.1204 87.4253 46.9137C87.0947 47.707 86.9294 48.4766 86.9294 49.2343V49.2817C86.9294 50.4065 87.1538 51.33 87.5906 52.0641C88.0392 52.7982 88.6177 53.3784 89.3497 53.8046C90.0817 54.2309 90.9081 54.5387 91.829 54.7045C92.7499 54.8821 93.6826 54.965 94.6507 54.965H96.5161C97.1064 54.4914 97.6259 53.9822 98.0745 53.4376C98.5232 52.8811 98.9246 52.3365 99.2906 51.8155H93.718V51.8037Z" fill="white"/>
<path d="M113.8 44.2261C113.729 43.9538 113.647 43.6933 113.552 43.4446C113.458 43.196 113.352 42.9829 113.21 42.8171C113.08 42.6514 112.938 42.5566 112.773 42.5566H108.853C108.747 42.5566 108.606 42.6158 108.44 42.7342C108.275 42.8526 108.11 42.9829 107.944 43.1368C107.779 43.2907 107.626 43.4328 107.484 43.5986C107.342 43.7525 107.248 43.8827 107.201 43.9775L98.7946 54.7401V54.8112C98.7946 54.7993 98.7828 54.8467 98.7473 54.9769H108.617C108.724 54.9296 108.901 54.7875 109.125 54.527C109.361 54.2784 109.597 54.006 109.833 53.71C110.07 53.414 110.294 53.1299 110.483 52.8694C110.672 52.6089 110.79 52.4195 110.825 52.3366L111.321 54.9769H115.477L113.942 44.9365C113.93 44.7352 113.871 44.4984 113.8 44.2261ZM106.138 51.8275V51.5907L110.058 46.3218L110.872 51.8275H106.138Z" fill="white"/>
<path d="M133.587 43.7999C133.399 43.4446 133.139 43.1486 132.808 42.9118C132.478 42.675 132.041 42.5566 131.51 42.5566H121.096L116.587 54.9651H121.073L122.608 50.7026L122.867 50.5132L127.673 54.9651H132.667L128.098 50.2646C128.723 50.2172 129.384 50.1225 130.093 49.9922C130.801 49.862 131.451 49.637 132.029 49.341C132.608 49.045 133.103 48.6306 133.493 48.1097C133.883 47.6005 134.072 46.9375 134.072 46.1442C134.072 45.789 134.036 45.3983 133.965 44.972C133.894 44.5458 133.776 44.1551 133.587 43.7999ZM129.55 46.3928C129.55 46.5468 129.503 46.7362 129.396 46.9375C129.29 47.1506 129.125 47.2572 128.9 47.2572H125.17L123.115 49.341L124.449 45.6943H129.137C129.325 45.6943 129.444 45.7416 129.491 45.8245C129.538 45.9074 129.562 46.014 129.562 46.1442V46.3928H129.55Z" fill="white"/>
<path d="M158.947 42.5566H153.953L146.232 48.1215L148.263 42.5566H143.776L139.278 54.9651H143.765L145.783 49.3884L150.364 54.9651H155.358L150.872 48.7609L158.947 42.5566Z" fill="#F7931E"/>
<path d="M155.571 54.9651H167.306C167.318 54.9651 167.424 54.8822 167.601 54.7283C167.778 54.5744 167.991 54.3849 168.215 54.16C168.451 53.935 168.688 53.6982 168.924 53.4496C169.16 53.2009 169.36 52.9759 169.49 52.7983C169.502 52.7865 169.549 52.7273 169.608 52.6326C169.667 52.5379 169.738 52.4431 169.797 52.3247C169.856 52.2182 169.927 52.1116 169.986 52.0051C170.045 51.8985 170.092 51.8393 170.104 51.8038H161.167L161.675 50.3948H166.314L169.656 47.2335H164.26L162.041 49.3884L163.375 45.718H170.565C170.695 45.718 170.883 45.5877 171.155 45.3391C171.427 45.0904 171.71 44.7944 171.993 44.4511C172.277 44.1077 172.548 43.7643 172.808 43.4091C173.068 43.0539 173.245 42.7698 173.351 42.5566H160.045L155.571 54.9651Z" fill="#F7931E"/>
<path d="M183.894 42.5566L180.588 45.4812L179.419 42.5566H174.425L177.058 49.0569L174.909 54.9651H179.396L181.544 49.0569L188.9 42.5566H183.894Z" fill="#F7931E"/>
<path d="M192.135 42.5566C191.698 42.5566 191.261 42.6987 190.824 42.9947C190.387 43.2789 189.998 43.6459 189.655 44.0722C189.313 44.4984 189.03 44.9483 188.817 45.4338C188.605 45.9074 188.487 46.3336 188.487 46.7125C188.487 47.1151 188.557 47.5295 188.699 47.9557C188.841 48.382 189.042 48.7609 189.313 49.1161C189.585 49.4713 189.903 49.7554 190.281 49.9804C190.659 50.2054 191.072 50.3238 191.544 50.3238H196.208C196.338 50.3238 196.42 50.3948 196.468 50.525C196.515 50.6553 196.538 50.7855 196.538 50.9158V51.0578V51.1999C196.538 51.3538 196.515 51.5078 196.479 51.6499C196.444 51.7919 196.302 51.863 196.066 51.863H188.132C188.085 51.863 187.944 52.0051 187.707 52.2774C187.471 52.5497 187.223 52.8575 186.952 53.2127C186.68 53.568 186.421 53.9113 186.184 54.2547C185.948 54.598 185.783 54.8467 185.7 55.0006H197.601C198.026 55.0006 198.427 54.8704 198.829 54.6099C199.23 54.3494 199.573 54.0297 199.88 53.639C200.187 53.2483 200.423 52.822 200.612 52.3603C200.801 51.8985 200.895 51.4723 200.895 51.0578V50.9158C200.895 50.5606 200.836 50.1698 200.73 49.7436C200.623 49.3174 200.458 48.9266 200.222 48.5596C199.998 48.1925 199.703 47.8847 199.348 47.6479C198.994 47.4111 198.557 47.2808 198.061 47.2808H193.622C193.611 47.2808 193.54 47.2572 193.422 47.198C193.304 47.1388 193.221 47.0796 193.15 47.0204C193.115 46.9848 193.067 46.9493 193.008 46.8901C192.949 46.8309 192.914 46.7954 192.914 46.7836V46.6652C192.914 46.5231 192.973 46.3336 193.103 46.1087C193.233 45.8719 193.374 45.7535 193.552 45.7535H201.249C201.804 45.2207 202.324 44.6879 202.772 44.1669C203.233 43.6341 203.634 43.1013 204 42.5803H192.135V42.5566Z" fill="#F7931E"/>
<path d="M140.423 23.9785C138.723 23.9785 137.354 25.3638 137.354 27.0569C137.354 28.7619 138.735 30.1354 140.423 30.1354C142.111 30.1354 143.493 28.7501 143.493 27.0569C143.505 25.3638 142.123 23.9785 140.423 23.9785ZM140.423 29.7447C138.947 29.7447 137.743 28.537 137.743 27.0569C137.743 25.5769 138.947 24.3692 140.423 24.3692C141.899 24.3692 143.103 25.5769 143.103 27.0569C143.103 28.537 141.899 29.7447 140.423 29.7447Z" fill="#F7931E"/>
<path d="M140.4 26.4541C140.046 26.4541 139.75 26.7501 139.75 27.1053C139.75 27.4605 140.046 27.7565 140.4 27.7565C140.754 27.7565 141.049 27.4605 141.049 27.1053C141.049 26.7501 140.754 26.4541 140.4 26.4541ZM140.4 27.5552C140.152 27.5552 139.951 27.354 139.951 27.1053C139.951 26.8567 140.152 26.6554 140.4 26.6554C140.648 26.6554 140.848 26.8567 140.848 27.1053C140.848 27.354 140.648 27.5552 140.4 27.5552Z" fill="#F7931E"/>
<path d="M140.293 24.4766L139.62 26.075L137.932 26.4183L139.231 27.555L139.042 29.2718L140.518 28.3838L142.088 29.0942L141.698 27.4129L142.867 26.1342L141.143 25.9803L140.293 24.4766ZM141.309 27.3064L141.58 28.4667L140.494 27.9694L139.467 28.5851L139.597 27.4011L138.699 26.6196L139.868 26.3828L140.329 25.2817L140.919 26.3236L142.111 26.4302L141.309 27.3064Z" fill="white"/>
<path d="M58.0511 26.1696C58.0511 31.0477 61.4513 35.1325 66.0085 36.1745C62.1833 34.8365 59.4325 31.2016 59.4325 26.9155C59.4325 21.4927 63.8126 17.1119 69.2198 17.1119C72.7145 17.1119 75.7723 18.9471 77.5078 21.7058C75.8431 18.284 72.3485 15.916 68.299 15.916C62.632 15.916 58.0511 20.51 58.0511 26.1696Z" fill="#F7931E"/>
<path d="M43.5766 19.2189C44.1197 14.1868 48.0511 12.8252 48.0511 12.8252C43.978 10.102 43.5766 9.0127 43.5766 9.0127C43.5766 9.0127 43.0453 24.2628 43.5766 19.2189Z" fill="#F7931E"/>
<path d="M57.3664 32.1484C43.0218 32.7522 45.3831 21.1963 45.3831 21.1963H43.0218C42.0419 36.4819 57.3664 32.1484 57.3664 32.1484Z" fill="#F7931E"/>
<path d="M49.6806 12.1506C59.0311 10.1259 65.0169 7.93549 65.0169 7.93549C84.5208 1.42343 99.1959 2.63112 99.1959 2.63112C114.52 4.53738 122.667 12.2927 122.667 12.2927C148.57 11.748 154.815 15.2882 154.815 15.2882C144.78 8.62222 124.296 9.03662 124.296 9.03662C117.094 3.44809 105.701 1.12742 105.701 1.12742C86.457 -3.19422 60.5423 6.30156 60.5423 6.30156C49.3854 9.02478 44.5331 7.24876 44.5331 7.24876C45.0762 9.15502 49.6806 12.1506 49.6806 12.1506Z" fill="#F7931E"/>
<path d="M148.971 15.5959C150.943 17.5259 151.143 18.3192 151.143 18.3192C157.495 18.5796 158.853 20.8529 158.995 21.1489C155.736 14.1041 148.971 15.5959 148.971 15.5959Z" fill="#F7931E"/>
<path d="M158.995 21.1494C158.995 21.1616 159.007 21.1738 159.007 21.1861C159.007 21.1738 159.007 21.1616 158.995 21.1494Z" fill="#F7931E"/>
<path d="M118.995 12.9673C118.995 12.9673 108.96 4.39507 99.6681 4.80948C99.6681 4.80948 109.904 6.84598 112.62 11.0611L95.6658 12.9673H118.995Z" fill="#F7931E"/>
<path d="M93.7652 4.12306C77.3545 3.98098 70.8375 9.02487 70.8375 9.02487C79.3852 5.35444 92.679 5.89908 92.679 5.89908V12.9676L93.7652 4.12306Z" fill="#F7931E"/>
<path d="M159.006 22.499C152.773 23.1739 153.056 32.717 153.056 32.717C154.815 32.7407 161.061 32.717 161.061 32.717C151.427 29.7452 159.006 22.499 159.006 22.499Z" fill="#F7931E"/>
<path d="M132.065 31.4739C128.983 25.0092 133.682 17.4434 140.896 17.4434C144.39 17.4434 147.448 19.2786 149.184 22.0373C146.173 15.8213 138.05 14.3294 133.033 18.9707C114.58 10.7892 100.046 26.2643 76.3037 15.6318C76.3037 15.6318 78.5587 19.0063 83.5173 22.3215H103.446L109.125 28.0758L107.897 28.5968C112.962 28.3836 118.7 27.4246 125.158 25.3526C125.158 25.3526 117.472 30.6925 103.682 30.3965L103.234 30.5859H100.506L100.306 30.207C100.058 30.1833 99.7981 30.1597 99.5502 30.136L99.1842 30.5859H95.8548L95.5479 30.0886C95.4534 29.9347 95.3354 29.7453 95.2055 29.544C95.0638 29.5203 94.9339 29.4966 94.7923 29.4729L94.1665 30.5977H93.1276C103.045 34.3274 118.971 38.4359 131.958 32.9184C133.375 34.7063 135.382 36.0087 137.684 36.5415C135.205 35.6653 133.186 33.8301 132.065 31.4739Z" fill="#F7931E"/>
<path d="M140.423 18.4971C135.713 18.4971 131.876 22.3451 131.876 27.0693C131.876 31.7935 135.713 35.6416 140.423 35.6416C145.134 35.6416 148.971 31.7935 148.971 27.0693C148.971 22.3333 145.134 18.4971 140.423 18.4971ZM140.423 32.9302C137.2 32.9302 134.579 30.3017 134.579 27.0693C134.579 23.837 137.2 21.1966 140.423 21.1966C143.646 21.1966 146.279 23.8251 146.279 27.0693C146.279 30.3017 143.646 32.9302 140.423 32.9302ZM147.236 26.0392C147.035 23.7541 145.713 22.2504 144.65 21.3861C143.587 20.5336 142.43 20.0244 141.521 19.8468C144.744 20.0481 147.495 22.6411 147.897 26.0274L147.236 26.0392Z" fill="white"/>
<path d="M69.3023 23.9316C67.6023 23.9316 66.2327 25.3169 66.2327 27.0101C66.2327 28.715 67.6141 30.0885 69.3023 30.0885C71.0024 30.0885 72.372 28.7032 72.372 27.0101C72.372 25.3169 71.0024 23.9316 69.3023 23.9316ZM69.3023 29.6978C67.8266 29.6978 66.6223 28.4901 66.6223 27.0101C66.6223 25.5301 67.8266 24.3224 69.3023 24.3224C70.7781 24.3224 71.9824 25.5301 71.9824 27.0101C71.9824 28.4901 70.7781 29.6978 69.3023 29.6978Z" fill="#F7931E"/>
<path d="M69.279 26.4062C68.9249 26.4062 68.6297 26.7023 68.6297 27.0575C68.6297 27.4127 68.9249 27.7087 69.279 27.7087C69.6332 27.7087 69.9284 27.4127 69.9284 27.0575C69.9284 26.7023 69.6332 26.4062 69.279 26.4062ZM69.279 27.5074C69.0311 27.5074 68.8304 27.3061 68.8304 27.0575C68.8304 26.8088 69.0311 26.6075 69.279 26.6075C69.527 26.6075 69.7277 26.8088 69.7277 27.0575C69.7277 27.3061 69.527 27.5074 69.279 27.5074Z" fill="#F7931E"/>
<path d="M69.1607 24.4297L68.4878 26.0281L66.7995 26.3715L68.0982 27.5081L67.9093 29.2249L69.3851 28.3369L70.9553 29.0473L70.5657 27.366L71.7345 26.0873L70.0108 25.9334L69.1607 24.4297ZM70.1879 27.2595L70.4594 28.4198L69.3733 27.9225L68.3461 28.5382L68.476 27.3542L67.5787 26.5727L68.7475 26.3359L69.208 25.2348L69.7983 26.2767L70.9907 26.3833L70.1879 27.2595Z" fill="white"/>
<path d="M94.875 27.1395C94.875 27.1395 95.9139 28.6906 96.4334 29.5312H98.6766L100.141 27.7315L101.12 29.5312H103.009L107.295 27.7078L103.009 23.3625H76.9767C75.5954 20.4854 72.6556 18.4844 69.2673 18.4844C68.9721 18.4844 68.6769 18.4962 68.3936 18.5317C64.0843 18.9698 60.7195 22.6284 60.7195 27.0566C60.7195 31.4848 64.0843 35.1434 68.3936 35.5815C68.6769 35.6052 68.9721 35.6289 69.2673 35.6289C72.6675 35.6289 75.5954 33.6397 76.9767 30.7507H90.0344L90.6956 29.5194H90.8491H93.5409L94.875 27.1395ZM71.5459 32.4676C71.3688 32.5386 71.1917 32.6096 71.0028 32.6688C70.4479 32.8346 69.8694 32.9293 69.2673 32.9293C68.5589 32.9293 67.8859 32.7991 67.2602 32.5741C65.017 31.7453 63.4232 29.5904 63.4232 27.0685C63.4232 23.8361 66.0442 21.1958 69.2673 21.1958C72.4904 21.1958 75.1231 23.8243 75.1231 27.0685C75.1231 29.3891 73.7654 31.4019 71.8056 32.361C71.723 32.3965 71.6285 32.432 71.5459 32.4676Z" fill="white"/>
</svg>
