<svg width="428" height="594" viewBox="0 0 428 594" fill="none" xmlns="http://www.w3.org/2000/svg">
<g opacity="0.53">
<path d="M183.257 -1.08366L425.871 -1.21801L121 594L0.419914 337.959L183.257 -1.08366Z" fill="#000711"/>
<path d="M183.257 -1.08366L425.871 -1.21801L121 594L0.419914 337.959L183.257 -1.08366Z" fill="black" fill-opacity="0.2"/>
</g>
<path opacity="0.3" d="M181.739 -0.829458L340.449 -0.808835L166.667 331.745L0.453419 338.686L181.739 -0.829458Z" fill="#F7931E"/>
<g opacity="0.5">
<path d="M-0.003479 338.57L161.275 331.76L284.61 582.9L121 594L-0.003479 338.57Z" fill="#000711"/>
<path d="M-0.003479 338.57L161.275 331.76L284.61 582.9L121 594L-0.003479 338.57Z" fill="black" fill-opacity="0.2"/>
</g>
<g opacity="0.86">
<path d="M204.754 422.18L283.683 581.364L290 594L121 594L204.754 422.18Z" fill="#000711"/>
<path d="M204.754 422.18L283.683 581.364L290 594L121 594L204.754 422.18Z" fill="black" fill-opacity="0.2"/>
</g>
</svg>
